<?xml version="1.0" encoding="UTF-8"?>
<svg xmlns="http://www.w3.org/2000/svg" xmlns:xlink="http://www.w3.org/1999/xlink" width="32px" height="32px" viewBox="0 0 32 32" version="1.1">
<g id="surface1">
<path style=" stroke:none;fill-rule:evenodd;fill:rgb(100%,0%,0%);fill-opacity:1;" d="M 10.609375 25.214844 C 5.488281 25.214844 1.332031 21.070312 1.332031 15.949219 C 1.332031 10.828125 5.488281 6.667969 10.609375 6.667969 L 21.390625 6.667969 C 26.515625 6.667969 30.667969 10.828125 30.667969 15.949219 C 30.667969 21.070312 26.515625 25.214844 21.390625 25.214844 Z M 21.152344 21.945312 C 24.46875 21.945312 27.15625 19.265625 27.15625 15.949219 C 27.15625 12.632812 24.46875 9.9375 21.152344 9.9375 L 10.847656 9.9375 C 7.53125 9.9375 4.84375 12.632812 4.84375 15.949219 C 4.84375 19.265625 7.53125 21.945312 10.847656 21.945312 Z M 21.152344 21.945312 "/>
</g>
</svg>
